<?xml version="1.0" encoding="UTF-8" standalone="no"?>
<!-- Created with Inkscape (http://www.inkscape.org/) -->

<svg
   width="24"
   height="24"
   viewBox="0 0 6.3500001 6.35"
   version="1.1"
   id="svg5"
   inkscape:version="1.2.2 (732a01da63, 2022-12-09)"
   sodipodi:docname="icon.svg"
   xmlns:inkscape="http://www.inkscape.org/namespaces/inkscape"
   xmlns:sodipodi="http://sodipodi.sourceforge.net/DTD/sodipodi-0.dtd"
   xmlns="http://www.w3.org/2000/svg"
   xmlns:svg="http://www.w3.org/2000/svg">
  <sodipodi:namedview
     id="namedview7"
     pagecolor="#505050"
     bordercolor="#ffffff"
     borderopacity="1"
     inkscape:showpageshadow="0"
     inkscape:pageopacity="0"
     inkscape:pagecheckerboard="1"
     inkscape:deskcolor="#505050"
     inkscape:document-units="mm"
     showgrid="false"
     inkscape:zoom="22.627417"
     inkscape:cx="12.506951"
     inkscape:cy="8.7504464"
     inkscape:window-width="1857"
     inkscape:window-height="1057"
     inkscape:window-x="-8"
     inkscape:window-y="-8"
     inkscape:window-maximized="1"
     inkscape:current-layer="layer1" />
  <defs
     id="defs2" />
  <g
     inkscape:label="Layer 1"
     inkscape:groupmode="layer"
     id="layer1">
    <g
       id="g10865"
       transform="translate(-0.03770549,-0.00234851)"
       style="fill:#62b3ff;fill-opacity:1">
      <path
         id="path4861"
         style="color:#000000;fill:#62b3ff;fill-rule:evenodd;stroke-width:1.13974;stroke-linecap:round;stroke-linejoin:round;stroke-miterlimit:6.1;-inkscape-stroke:none;paint-order:fill markers stroke;fill-opacity:1"
         d="M 3.0394173,1.5418421 C 2.8033029,1.5835576 2.6060355,1.7593152 2.5439617,1.9976508 a 0.18093342,0.18093342 0 0 0 0.130043,0.2210689 0.18093342,0.18093342 0 0 0 0.2210689,-0.130043 C 2.9257276,1.9709802 3.03152,1.8912705 3.1531281,1.8932028 c 0.1216084,0.00194 0.2237315,0.084484 0.2506303,0.203096 0.026899,0.1186118 -0.028699,0.2381607 -0.1375759,0.2923636 a 0.18093342,0.18093342 0 0 0 -0.00108,7.51e-4 0.18093342,0.18093342 0 0 0 -0.00108,7.509e-4 L 0.74042272,3.6458327 a 0.18093342,0.18093342 0 0 0 -0.0798306,0.2429828 0.18093342,0.18093342 0 0 0 0.24123389,0.080083 L 3.4031119,2.7235856 a 0.18093342,0.18093342 0 0 0 0.02481,-0.00953 C 3.6844758,2.5863386 3.8205448,2.2968933 3.7571608,2.0174025 3.6937764,1.7379119 3.4442351,1.5370875 3.1576832,1.5325348 c -0.040297,-6.402e-4 -0.079629,0.00248 -0.1182659,0.00931 z" />
      <path
         id="path4861-3"
         style="color:#000000;fill:#62b3ff;fill-rule:evenodd;stroke-width:1.13974;stroke-linecap:round;stroke-linejoin:round;stroke-miterlimit:6.1;-inkscape-stroke:none;paint-order:fill markers stroke;fill-opacity:1"
         d="m 4.9778462,3.1833517 c -0.058654,0.00972 -0.1163595,0.028468 -0.1716836,0.055684 a 0.18093342,0.18093342 0 0 0 -0.00283,10e-4 0.18093342,0.18093342 0 0 0 -0.00116,1.68e-4 L 1.6375179,4.81676 a 0.18093342,0.18093342 0 0 0 -0.08158,0.2432347 0.18093342,0.18093342 0 0 0 0.2432348,0.081579 L 4.9639053,3.5656043 a 0.18093342,0.18093342 0 0 0 0.00166,-8.35e-4 c 0.00324,-0.00161 0.00614,-0.00346 0.0094,-0.00492 a 0.18093342,0.18093342 0 0 0 5.83e-4,-8.41e-5 c 0.1066351,-0.047577 0.2300492,-0.018713 0.3060259,0.071341 0.078428,0.092959 0.083152,0.2244689 0.011386,0.3226664 -0.07176,0.098198 -0.199272,0.1342426 -0.3116612,0.087758 A 0.18093342,0.18093342 0 0 0 4.7443723,4.139937 0.18093342,0.18093342 0 0 0 4.8421994,4.3769545 C 5.1070378,4.4864883 5.4146739,4.3985299 5.5837662,4.1671417 5.7528591,3.9357539 5.7426361,3.61575 5.5578331,3.3967054 5.4134556,3.2255771 5.1906629,3.1480717 4.9778462,3.1833517 Z" />
      <path
         id="path4861-7"
         style="color:#000000;fill:#62b3ff;fill-rule:evenodd;stroke-width:1.13974;stroke-linecap:round;stroke-linejoin:round;stroke-miterlimit:6.1;-inkscape-stroke:none;paint-order:fill markers stroke;fill-opacity:1"
         d="M 5.3557349,1.2014942 C 5.1141107,1.2393779 4.9114918,1.4181472 4.8482891,1.6608159 A 0.18093342,0.18093342 0 0 0 4.9769141,1.880304 0.18093342,0.18093342 0 0 0 5.1963183,1.7510959 c 0.030654,-0.1176967 0.1364464,-0.1974063 0.2580545,-0.195474 0.1216084,0.00194 0.2238155,0.085068 0.2507143,0.2036792 0.026899,0.1186116 -0.028699,0.2381608 -0.137576,0.2923635 a 0.18093342,0.18093342 0 0 0 -0.012069,0.00709 L 0.45281135,4.5983174 A 0.18093342,0.18093342 0 0 0 0.37064889,4.8416363 0.18093342,0.18093342 0 0 0 0.61363163,4.921467 L 5.7195922,2.3802389 a 0.18093342,0.18093342 0 0 0 0.00957,-0.00376 C 5.9857205,2.2487577 6.1217895,1.9593126 6.0584054,1.6798218 5.9950211,1.400331 5.7477276,1.1985879 5.4611757,1.194035 5.4253577,1.1934659 5.3902517,1.196087 5.3557352,1.201489 Z" />
    </g>
  </g>
</svg>
